<svg xmlns="http://www.w3.org/2000/svg" xmlns:xlink="http://www.w3.org/1999/xlink" width="1080" zoomAndPan="magnify" viewBox="0 0 810 809.999993" height="1080" preserveAspectRatio="xMidYMid meet" version="1.0"><defs><clipPath id="24e967b138"><path d="M 54.453125 12.78125 L 755.703125 12.78125 L 755.703125 797.28125 L 54.453125 797.28125 Z M 54.453125 12.78125 " clip-rule="nonzero"/></clipPath></defs><g clip-path="url(#24e967b138)"><path fill="#22c55e" d="M 54.492188 12.78125 L 239.8125 12.78125 C 136.46875 12.78125 54.492188 100.101562 54.492188 209.195312 Z M 497.660156 281.722656 C 497.660156 132.5625 384.042969 12.78125 242.480469 12.78125 C 280.695312 13.808594 311.308594 46.066406 311.308594 86.335938 L 311.308594 513.476562 C 311.308594 670.652344 432.324219 797.210938 580.457031 797.210938 C 534.847656 797.210938 497.660156 757.96875 497.660156 709.894531 Z M 755.503906 12.78125 L 568.335938 12.78125 C 670.652344 12.78125 755.503906 100.101562 755.503906 209.195312 Z M 755.503906 12.78125 " fill-opacity="1" fill-rule="nonzero"/></g></svg>